# xmcd CD database file
#
# Track frame offsets:
#	150
#	19426
#	50608
#	71338
#	100631
#	129133
#	157554
#	179322
#	203176
#
# Disc length: 3059 seconds
#
# Revision: 0
# Processed by: cddbd v1.5.2PL0 Copyright (c) Steve Scherf et al.
# Submitted via: CDex 1.70beta2
#
DISCID=690bf109
DTITLE=Carlos Dalelane and Band - Komanine
DYEAR=2019
DGENRE=Blues
TTITLE0=komanine
TTITLE1=mokala
TTITLE2=mama
TTITLE3=jentja
TTITLE4=dezembro
TTITLE5=chromatico
TTITLE6=notirramahala
TTITLE7=massango
TTITLE8=in a silent wave
EXTD=YEAR: 2019
EXTT0=
EXTT1=
EXTT2=
EXTT3=
EXTT4=
EXTT5=
EXTT6=
EXTT7=
EXTT8=
PLAYORDER=
